<svg xmlns="http://www.w3.org/2000/svg" width="4096" height="4096" viewBox="0 0 4096 4096">
  <defs>
    <style>
      .cls-1 {
        fill-rule: evenodd;
      }
    </style>
  </defs>
  <path id="形状_8" data-name="形状 8" class="cls-1" d="M3613,1443c-635.61-181.27-992,78-992,78s490.73-40.26,951,188c323.73,160.54,465.07,338.37,521.83,433.96a2041.193,2041.193,0,0,1-107.57,568.14c-70.15-194.69-225.63-503.63-547.26-712.1-453.89-294.2-774-230-774-230s266.57,39.04,685,450c291.8,286.59,415.92,638.56,467.86,860.15a2056.2,2056.2,0,0,1-313.91,409.16c-9.26-236.12-62.23-624.91-287.76-935.65C2872.11,2078.58,2589.89,2018.73,2590,2019c0,0,329.93,266.42,494,809,104.53,345.69,83.63,726.01,55.45,953.23a2037.874,2037.874,0,0,1-488.66,224.61C2722.11,3808.43,2832.25,3412.05,2758,2996c-102.74-575.69-351-754-351-754s139.05,242.4,131,845c-6.99,523.47-223.44,871.43-321.06,1002.13q-83.565,6.825-168.94,6.87a2057.8,2057.8,0,0,1-403.46-39.74C1777.42,3939.75,2017,3689.18,2128,3320c159.85-531.63,65-853,65-853s17.24,344.67-305,827c-213.4,319.42-473.75,548.49-605.99,653.93a2045.431,2045.431,0,0,1-491.825-283.59C957.043,3616.57,1202.92,3513.89,1438,3295c374.24-348.48,451-676,451-676s-155.53,281.01-718,560c-274.609,136.21-544.037,152.85-728.11,141.1C165.614,2970.71,0,2528.7,0,2048,0,916.921,916.921,0,2048,0,3060.7,0,3901.72,735.042,4066.67,1700.72,3997.92,1622.42,3863.55,1514.45,3613,1443Zm-873.1-440c69.33-248.259-69.9-398-69.9-398s-184.16,5.215-330,94c-152.09,92.586-184,237-184,237s97.8-52.416,168-72c57.29-15.981,115.47-23.4,188-22,28.91,39.824,44.61,124.8,43,210-3.23,171.03-65,244-65,244S2683.21,1206,2739.9,1003ZM1287,923c-54.93,48-58.67,73.005-104,121-125,38.64-167.81,49.69-326,128-96.855,47.94-188.035,104.71-238,142-79.112,59.04-97,97-97,97l396-9s-111.369,75.76-172,118c-71.46,49.78-102.583,72.89-146,104v212s90.069-38.92,374,86c246.21,108.32,262,206,262,206s-118.27-83-304-150c-97.5-35.17-290-44-290-44s3.356,130.53-3,264c-6.638,139.4-21,250-21,250s247.392-4.73,414-46c166.41-41.22,295.7-98.65,358-170,86.84-99.45,63.94-175.94,64-176,0,0,157.63,11.39,248,106,193.91,203.02,212,342,212,342s24.66-260.62-108-454c-93.78-136.71-280-244-280-244s202.6,25.06,362,178c246.37,236.4,284,386,284,386s30.35-229.48-140-452c-171.14-223.56-374-292-374-292s233.56,34.53,432,188c233.92,180.91,320,330,320,330s-17.33-275.83-251-490c-193.63-177.47-417-206-417-206s231.51-26.75,452,106c336.08,202.34,366,302,366,302s11.9-217.77-291-442c-186.33-137.94-326.99-151.03-327-151,0,0,185.41-28.98,314,36,235.38,118.94,272,177,272,177s-37.99-166.11-271-321c-168.38-111.93-261.24-95.07-278-177-24.55-120.01,102-254,102-254s-181.58-9.113-504,95C1487.11,848.025,1366.81,883.728,1287,923Zm859-607c-405.04,148-451,398-451,398s99.84-24.67,192-43c88.78-17.658,322-15,322-15s-8.76-78,228-183c207.08-91.836,589-110,589-110S2572.36,160.212,2146,316ZM3463.91,865.748C3115.09,560.439,2774.54,594.315,2774,594c0,0,98.35,88.084,103,272,4.95,195.52-36,258-36,258s193.68-56.07,486-8c364.39,59.92,482,149,482,149S3758.5,1123.59,3463.91,865.748ZM1480,1193c-60.05,22.67-80.34,2.54-140,30-28.04,12.91-59.12,43.33-89,65-47.97,34.79-90,61-90,61s29.3-85.7,63-112c43.06-33.61,74.15-65.41,84-102,12.68-47.07,16-76,16-76l324,13s-18.61,17.87-71,56C1553.63,1145.01,1517.09,1165.19,1480,1193Z"/>
</svg>
